<svg xmlns="http://www.w3.org/2000/svg" viewBox="0 0 500 368.76"><defs><style>.cls-1{fill:#ebebeb;}.cls-2{fill:#f5f5f5;}.cls-3{fill:#fafafa;}.cls-4{fill:#e6e6e6;}.cls-5{fill:#e0e0e0;}.cls-6{fill:#f0f0f0;}.cls-7{fill:#ce7a63;}.cls-8{fill:#263238;}.cls-20,.cls-9{opacity:0.8;}.cls-10,.cls-12,.cls-25{opacity:0.2;}.cls-11,.cls-18{fill:#407bff;}.cls-12{isolation:isolate;}.cls-13{fill:#ba4d3c;}.cls-14,.cls-16,.cls-31{opacity:0.3;}.cls-15{fill:none;stroke:#407bff;stroke-miterlimit:10;}.cls-16,.cls-17,.cls-20,.cls-21,.cls-22,.cls-23,.cls-25,.cls-27,.cls-28,.cls-30{fill:#fff;}.cls-17,.cls-29{opacity:0.6;}.cls-18,.cls-19,.cls-22{opacity:0.5;}.cls-21{opacity:0.7;}.cls-23{opacity:0.9;}.cls-24,.cls-27{opacity:0.1;}.cls-26,.cls-28{opacity:0.4;}</style></defs><title>4022201</title><g id="Background_Complete" data-name="Background Complete"><rect class="cls-1" x="416.78" y="343.54" width="33.12" height="0.25"/><rect class="cls-1" x="322.53" y="346.26" width="8.69" height="0.25"/><rect class="cls-1" x="396.59" y="334.26" width="19.19" height="0.25"/><rect class="cls-1" x="52.46" y="335.94" width="43.19" height="0.25"/><rect class="cls-1" x="104.56" y="335.94" width="6.33" height="0.25"/><rect class="cls-1" x="131.47" y="340.16" width="93.68" height="0.25"/><path class="cls-1" d="M237,337.8H43.92a5.71,5.71,0,0,1-5.71-5.71V60.66A5.71,5.71,0,0,1,43.92,55H237a5.71,5.71,0,0,1,5.71,5.71V332.09A5.71,5.71,0,0,1,237,337.8ZM43.92,55.2a5.47,5.47,0,0,0-5.46,5.46V332.09a5.47,5.47,0,0,0,5.46,5.46H237a5.47,5.47,0,0,0,5.46-5.46V60.66A5.47,5.47,0,0,0,237,55.2Z" transform="translate(0 -54.95)"/><path class="cls-1" d="M453.31,337.8H260.21a5.72,5.72,0,0,1-5.71-5.71V60.66A5.72,5.72,0,0,1,260.21,55h193.1A5.71,5.71,0,0,1,459,60.66V332.09A5.71,5.71,0,0,1,453.31,337.8ZM260.21,55.2a5.47,5.47,0,0,0-5.46,5.46V332.09a5.47,5.47,0,0,0,5.46,5.46h193.1a5.47,5.47,0,0,0,5.46-5.46V60.66a5.47,5.47,0,0,0-5.46-5.46Z" transform="translate(0 -54.95)"/><rect class="cls-1" y="327.45" width="500" height="0.25"/><path class="cls-1" d="M339.16,178.88V170a.85.85,0,0,1,0-1.69c3.37,0,6.74,0,10.11,0v12.26H339.16A.85.85,0,0,1,339.16,178.88Z" transform="translate(0 -54.95)"/><rect class="cls-2" x="339.16" y="115.09" width="7.86" height="8.83"/><path class="cls-3" d="M345.37,179.73H372.6c1.87,0,3.39-2.36,3.39-5.27s-1.52-5.27-3.39-5.27H345.37Z" transform="translate(0 -54.95)"/><path class="cls-4" d="M345.37,168.35c8.92,0,17.85-.16,26.76,0,6.11.11,6.44,11.81.45,12.22-4.18.29-8.47,0-12.66,0H345.37a.85.85,0,0,1,0-1.69h25.35c2,0,3.36,0,4.11-2.33.66-2,.45-6.07-2.23-6.51a5.53,5.53,0,0,0-.91,0H345.37a.85.85,0,0,1,0-1.69Z" transform="translate(0 -54.95)"/><polygon class="cls-1" points="153.96 92.53 146 92.53 145.61 87.39 154.34 87.39 153.96 92.53"/><rect class="cls-1" x="145.32" y="92.89" width="9.31" height="9.44"/><path class="cls-2" d="M154.48,180.7c2.2,0,4.08-2.28,4.27-5.29,0-.28,0-.58,0-.87V160.92c0-4.65-2.75-8.43-6.14-8.43h-5.31c-3.39,0-6.14,3.78-6.14,8.43v13.62c0,.29,0,.59,0,.87.19,3,2.07,5.29,4.27,5.29Z" transform="translate(0 -54.95)"/><path class="cls-2" d="M156.19,147.84H143.77c-.43,0-.78-.47-.78-1.06h0c0-.59.35-1.07.78-1.07h12.42c.43,0,.77.48.77,1.07h0C157,147.37,156.62,147.84,156.19,147.84Z" transform="translate(0 -54.95)"/><rect class="cls-2" x="141.71" y="125.52" width="245.1" height="7.05"/><rect class="cls-1" x="88.64" y="125.52" width="54.9" height="7.05"/><polygon class="cls-4" points="95.34 149.7 95.34 132.57 112.47 132.57 95.34 149.7"/><polygon class="cls-2" points="103.91 149.7 121.03 132.57 112.47 132.57 95.34 149.7 103.91 149.7"/><polygon class="cls-5" points="352.77 149.7 352.77 132.57 369.9 132.57 352.77 149.7"/><polygon class="cls-3" points="361.34 149.7 378.47 132.57 369.9 132.57 352.77 149.7 361.34 149.7"/><polygon class="cls-1" points="130.64 95.44 121.12 95.44 120.66 90.74 131.11 90.74 130.64 95.44"/><rect class="cls-2" x="120.31" y="95.77" width="11.15" height="8.62"/><path class="cls-6" d="M131.27,180.7a5.2,5.2,0,0,0,5.11-4.82c0-.27,0-.53,0-.8V162.66a7.53,7.53,0,0,0-7.35-7.7h-6.35a7.53,7.53,0,0,0-7.35,7.7v12.42c0,.27,0,.53,0,.8a5.19,5.19,0,0,0,5.11,4.82Z" transform="translate(0 -54.95)"/><path class="cls-6" d="M133.31,150.72H118.45a1,1,0,0,1-.93-1h0a1,1,0,0,1,.93-1h14.86a1,1,0,0,1,.93,1h0A1,1,0,0,1,133.31,150.72Z" transform="translate(0 -54.95)"/><rect class="cls-2" x="141.71" y="59.68" width="245.1" height="7.05"/><rect class="cls-1" x="88.64" y="59.68" width="54.9" height="7.05"/><polygon class="cls-4" points="95.34 83.86 95.34 66.73 112.47 66.73 95.34 83.86"/><polygon class="cls-2" points="103.91 83.86 121.03 66.73 112.47 66.73 95.34 83.86 103.91 83.86"/><polygon class="cls-5" points="352.77 83.86 352.77 66.73 369.9 66.73 352.77 83.86"/><polygon class="cls-3" points="361.34 83.86 378.47 66.73 369.9 66.73 352.77 83.86 361.34 83.86"/><path class="cls-6" d="M127.86,115.59h-6.45a5.14,5.14,0,0,1-5.14-5.31L117.09,86h15.08l.83,24.32A5.14,5.14,0,0,1,127.86,115.59Z" transform="translate(0 -54.95)"/><circle class="cls-6" cx="165.38" cy="90.07" r="14.32" transform="translate(-15.25 88.37) rotate(-45)"/><path class="cls-1" d="M166.38,115.38h-2v-9.49h1a15.82,15.82,0,0,0,0-31.64v-2a17.82,17.82,0,0,1,1,35.61Z" transform="translate(0 -54.95)"/><path class="cls-1" d="M173.79,115.59h-17a3.82,3.82,0,0,1,3.82-3.81H170a3.82,3.82,0,0,1,3.82,3.81Z" transform="translate(0 -54.95)"/><polygon class="cls-2" points="126.9 60.64 140.35 47.19 153.81 60.64 126.9 60.64"/><polygon class="cls-4" points="140.35 47.19 126.9 60.64 140.35 60.64 140.35 47.19"/><path class="cls-2" d="M234.14,98c-.07,1.28-.11,2.29-.11,3a19.13,19.13,0,0,0,6.79,14.63h23.65A19.13,19.13,0,0,0,271.26,101c0-.68,0-1.69-.11-3Z" transform="translate(0 -54.95)"/><path class="cls-1" d="M237.37,102.92a2.26,2.26,0,0,0-2.26-2.23H221.64a2.27,2.27,0,0,0-2.26,2.23v.16a5.17,5.17,0,0,0-1.5-.24c-2.21,0-3.69,1.72-3.69,4.29s2.58,4.29,4.89,4.29a3.84,3.84,0,0,0,.69-.07,9.4,9.4,0,0,0,2.85,4.24h11.52a9.29,9.29,0,0,0,3.3-7.12C237.44,107.57,237.41,105.49,237.37,102.92ZM219.08,110c-1.57,0-3.46-1.27-3.46-2.85,0-.67.17-2.86,2.26-2.86a3.75,3.75,0,0,1,1.47.34c0,1.77,0,3.17,0,3.86a9.17,9.17,0,0,0,.13,1.49Z" transform="translate(0 -54.95)"/><polygon class="cls-6" points="344.05 60.64 342.17 39.09 369.5 39.09 371.38 60.64 344.05 60.64"/><polygon class="cls-5" points="344.05 60.64 342.17 39.09 340.69 39.09 342.58 60.64 344.05 60.64"/><polygon class="cls-3" points="346.65 58.44 345.14 41.29 366.9 41.29 368.41 58.44 346.65 58.44"/><polygon class="cls-1" points="348.31 57.03 347.06 42.7 365.24 42.7 366.49 57.03 348.31 57.03"/><polygon class="cls-6" points="313.24 60.64 340.69 60.64 337.65 25.82 310.19 25.82 313.24 60.64"/><polygon class="cls-5" points="313.24 60.64 311.93 60.64 308.88 25.82 310.19 25.82 313.24 60.64"/><polygon class="cls-5" points="315.72 57.09 337.58 57.09 335.16 29.37 313.3 29.37 315.72 57.09"/><polygon class="cls-3" points="317.32 54.81 335.58 54.81 333.56 31.65 315.3 31.65 317.32 54.81"/><rect class="cls-1" x="320.49" y="90.97" width="10.65" height="10.65" rx="3.18" transform="translate(27.34 203.65) rotate(-45)"/><rect class="cls-4" x="322.96" y="98.27" width="9.37" height="9.37" rx="3.18" transform="translate(23.16 206.87) rotate(-45)"/></g><g id="Shadow"><ellipse id="_Path_" data-name="&lt;Path&gt;" class="cls-2" cx="245.18" cy="357.44" rx="193.89" ry="11.32"/></g><g id="Character"><path class="cls-7" d="M373.34,158.83l-12.5,20L336,191.93l-9.94,3.1a3.14,3.14,0,0,0-1.74,1.34s-5.47,7.48-5.84,10.37c-.09.75,2.49-.46,3-1,1.08-1.1,3.44-4.41,3.44-4.41s5,2.32,6.72,2.17c1.91-.16,5.38-2.22,6.78-3.53a42.64,42.64,0,0,0,3-3.8s22.33-6.08,28-11c4.5-3.89,11.83-20.67,11.83-20.67Z" transform="translate(0 -54.95)"/><path class="cls-8" d="M386.09,141s-7.6,1.61-17.95,19.63l13.64,7.66S393.81,143.75,386.09,141Z" transform="translate(0 -54.95)"/><path class="cls-8" d="M368.35,159.82l13.55,7.81a1.35,1.35,0,0,1,.55,1.76l-.54,1.12a1.36,1.36,0,0,1-1.88.59l-13.74-7.64a1.35,1.35,0,0,1-.52-1.85l.72-1.28A1.36,1.36,0,0,1,368.35,159.82Z" transform="translate(0 -54.95)"/><path class="cls-9" d="M368.35,159.82l13.55,7.81a1.35,1.35,0,0,1,.55,1.76l-.54,1.12a1.36,1.36,0,0,1-1.88.59l-13.74-7.64a1.35,1.35,0,0,1-.52-1.85l.72-1.28A1.36,1.36,0,0,1,368.35,159.82Z" transform="translate(0 -54.95)"/><path class="cls-10" d="M381.78,168.26s2.13-4.35,4-9.59l-.48-2.15L379.46,149a87.44,87.44,0,0,0-7.33,13.86Z" transform="translate(0 -54.95)"/><path class="cls-7" d="M441,380.9c.65,8.58,1,14.19,1,14.19l-9.5,1.41s-1.11-5.77-2.78-14.63Z" transform="translate(0 -54.95)"/><path class="cls-11" d="M428,394c-1.19,0-2.42-.14-2.83-.64a.84.84,0,0,1,0-1,1.14,1.14,0,0,1,.7-.55c1.58-.5,5,1.29,5.12,1.37a.23.23,0,0,1,.12.23.26.26,0,0,1-.18.2A17.82,17.82,0,0,1,428,394Zm-1.58-1.81a1.55,1.55,0,0,0-.43.07.65.65,0,0,0-.44.33c-.15.29-.09.42,0,.5.46.6,2.87.54,4.64.26A10.57,10.57,0,0,0,426.4,392.18Z" transform="translate(0 -54.95)"/><path class="cls-11" d="M430.86,393.61h-.1c-1.16-.47-3.52-2.46-3.36-3.54,0-.26.2-.58.82-.67a1.68,1.68,0,0,1,1.28.35c1.25.95,1.59,3.52,1.61,3.64a.25.25,0,0,1-.1.21A.2.2,0,0,1,430.86,393.61Zm-2.47-3.78h-.13c-.41.05-.43.21-.44.27,0,.65,1.52,2.22,2.73,2.88a5.34,5.34,0,0,0-1.37-2.89,1.12,1.12,0,0,0-.79-.25Z" transform="translate(0 -54.95)"/><path class="cls-8" d="M431.82,392.25l10.43-.36a.85.85,0,0,1,.84.63l2.17,8.42a1.4,1.4,0,0,1-1,1.71,1.45,1.45,0,0,1-.29,0c-3.76.06-7.11,0-11.79.14-5.52.18-4.1.8-10.59,1.11-3.91.18-4.77-4.24-3.12-4.51,7.56-1.21,8.27-3.53,11.1-6.35A3.36,3.36,0,0,1,431.82,392.25Z" transform="translate(0 -54.95)"/><path class="cls-10" d="M441,380.9l-11.24,1c.24,1.32.48,2.55.7,3.72l10.83-.75C441.17,383.61,441.07,382.3,441,380.9Z" transform="translate(0 -54.95)"/><path class="cls-7" d="M393.12,379.26c-.87,8.56-1.47,14.16-1.47,14.16l-9.6-.28s-.08-5.89-.17-14.9Z" transform="translate(0 -54.95)"/><path class="cls-11" d="M377.72,391.46c-1.19,0-2.43-.15-2.83-.65a.83.83,0,0,1,0-1,1.14,1.14,0,0,1,.69-.55c1.59-.49,5,1.32,5.12,1.4a.24.24,0,0,1,.12.24.25.25,0,0,1-.18.19A16.76,16.76,0,0,1,377.72,391.46Zm-1.58-1.82a2.14,2.14,0,0,0-.43.07.65.65,0,0,0-.43.33c-.16.29-.1.42,0,.5.46.61,2.87.55,4.64.29A10.49,10.49,0,0,0,376.14,389.64Z" transform="translate(0 -54.95)"/><path class="cls-11" d="M380.59,391.11a.14.14,0,0,1-.09,0c-1.16-.47-3.51-2.48-3.34-3.56,0-.26.21-.58.83-.66a1.67,1.67,0,0,1,1.27.35c1.24,1,1.57,3.53,1.59,3.65a.23.23,0,0,1-.1.21A.22.22,0,0,1,380.59,391.11Zm-2.44-3.81H378c-.41,0-.43.21-.44.26,0,.65,1.51,2.23,2.71,2.9a5.25,5.25,0,0,0-1.35-2.89,1.19,1.19,0,0,0-.79-.27Z" transform="translate(0 -54.95)"/><path class="cls-8" d="M381.57,389.74l10.42-.29a.83.83,0,0,1,.84.63l2.12,8.43a1.4,1.4,0,0,1-1,1.71,1.35,1.35,0,0,1-.29,0c-3.76,0-7.11-.07-11.79.07-5.52.15-4.1.77-10.59,1.05-3.91.16-4.75-4.27-3.1-4.53,7.57-1.17,8.29-3.49,11.14-6.29A3.43,3.43,0,0,1,381.57,389.74Z" transform="translate(0 -54.95)"/><path class="cls-10" d="M381.93,382.53l10.81.46c.12-1.17.25-2.41.38-3.73l-11.24-1C381.9,379.77,381.91,381.19,381.93,382.53Z" transform="translate(0 -54.95)"/><path class="cls-11" d="M376.51,222.22l.66,65.33,3.71,88.72,14.35,1.56a296.49,296.49,0,0,0,5.25-50.74c.17-10.62-2.31-21.24-2.3-31,0-7.2,2.51-12.54,5-28.34,2.4-15,4.82-32.91,5.14-45.86Z" transform="translate(0 -54.95)"/><path class="cls-10" d="M405,256.19l-2.23-8.62-5.21-1.07s-1.11,25.62,1.41,42.5c.93-4.87,2.6-10.75,4.28-21.25C403.81,264,404.41,260.14,405,256.19Z" transform="translate(0 -54.95)"/><path class="cls-11" d="M393.11,222.22l13.14,72.22,22.32,87.33,13.13-1a390.15,390.15,0,0,0-5.19-52.6c-2.15-12.27-7-24.17-9.45-35.06-1.66-7.4-.66-13.44-1.33-30.29-.52-13.06.72-28.15-3.73-40.62Z" transform="translate(0 -54.95)"/><path class="cls-8" d="M375.85,167.22c1.67-18,5-29,20.67-28.33s31-1,28.33,20.33-1,63.9-1,63.9H375.52s.42-15.32.5-32.16C376.06,182.15,375.28,173.41,375.85,167.22Z" transform="translate(0 -54.95)"/><path class="cls-7" d="M391.54,139.12c4.38-.79,5.87-2.49,5.46-6.21a21.45,21.45,0,0,0-.45-2.76l6.81-5.69,5-4.14c-1.35,6.05-2.05,18.72,1.57,19.6-1.7,1.49-3.31,4.15-5.62,5.29-2.06,1-5,1.21-7.75,1.21-1.83-.25-3.84-.7-4.58-1.71C390.33,142.47,391.54,139.12,391.54,139.12Z" transform="translate(0 -54.95)"/><path class="cls-12" d="M396.55,130.15a21.45,21.45,0,0,1,.45,2.76c2.56-.5,6.4-2.78,6.75-5.66a12,12,0,0,0-.39-2.79Z" transform="translate(0 -54.95)"/><path class="cls-7" d="M407.84,108.08c1,8.17,2.07,12.89-1.24,17.9-4.91,7.53-15.47,6-18.88-1.69-3.11-6.86-4.2-19.08,3-24a10.88,10.88,0,0,1,17.1,7.76Z" transform="translate(0 -54.95)"/><path class="cls-8" d="M396,113.06c.13.67-.12,1.27-.55,1.36s-.87-.36-1-1,.12-1.27.54-1.36S395.91,112.41,396,113.06Z" transform="translate(0 -54.95)"/><path class="cls-8" d="M388.36,114.52c.13.66-.12,1.27-.54,1.35s-.87-.36-1-1,.12-1.27.55-1.36S388.24,113.86,388.36,114.52Z" transform="translate(0 -54.95)"/><path class="cls-13" d="M391.37,114.43a25.09,25.09,0,0,1-1.7,5.42,3.48,3.48,0,0,0,2.86,0Z" transform="translate(0 -54.95)"/><path class="cls-8" d="M397,109.36a.33.33,0,0,0,.11-.15.38.38,0,0,0-.21-.5h0a3.81,3.81,0,0,0-3.5.31.38.38,0,0,0-.07.54h0a.38.38,0,0,0,.54.08,3,3,0,0,1,2.78-.24A.37.37,0,0,0,397,109.36Z" transform="translate(0 -54.95)"/><path class="cls-8" d="M388.53,110.07a.51.51,0,0,0,.07-.17.38.38,0,0,0-.33-.43h0a3.79,3.79,0,0,0-3.3,1.18.36.36,0,0,0,.06.53h0a.39.39,0,0,0,.55-.05,2.94,2.94,0,0,1,2.62-.93A.37.37,0,0,0,388.53,110.07Z" transform="translate(0 -54.95)"/><path class="cls-8" d="M406.63,116.23s-2.08,0-2.5-3.67a19.41,19.41,0,0,0-1.92-6.42s-4.83,0-6.58-2.41c0,0-11.86,6.44-15.67,1.83-3.58-4.33,4.9-4.83,4.9-4.83s-4.06-4.59-1.65-6.75,8.5,1.41,8.5,1.41-1.29-4.58,3.52-4.08,6.07,3.83,6.07,3.83,6.5-2.58,9.25.84c1.78,2.21-.95,4.58-.95,4.58s3.61.11,4.53,3.17c.75,2.5-1.8,4.28-2.58,4.83-2.28,1.58-2.7,9.75-2.7,9.75Z" transform="translate(0 -54.95)"/><path class="cls-8" d="M384.67,103.06s-5.69,2.71-4.56,6.45,4.92,3,6.16,2c1.52-1.28,3.92-6.91,3.92-6.91Z" transform="translate(0 -54.95)"/><path class="cls-7" d="M412.35,115a8.72,8.72,0,0,1-3.19,5c-2.07,1.53-3.64-.32-3.53-2.92.11-2.34,1.31-6,3.6-6.43S412.91,112.46,412.35,115Z" transform="translate(0 -54.95)"/><path class="cls-8" d="M397,122.49a6.76,6.76,0,0,0,1-.63.22.22,0,0,0,.05-.3h0a.2.2,0,0,0-.29,0,5.76,5.76,0,0,1-5.07,1,.21.21,0,0,0-.27.12.22.22,0,0,0,.12.28A6,6,0,0,0,397,122.49Z" transform="translate(0 -54.95)"/><path class="cls-8" d="M393.29,138.52a.16.16,0,0,1,.16.24c-.85,1.37-4.06,7.23,3.44,7.34,8,.12,12-6.19,12.48-7a.15.15,0,0,1,.15-.07l2.15.21a.34.34,0,0,1,.29.39,19.89,19.89,0,0,1-8.44,12.26,7.88,7.88,0,0,0-6.84-5.08c-5.25-.34-9.41,3.91-9.41,3.91s-1.65-7.09,3.62-11.8a.34.34,0,0,1,.19-.09Z" transform="translate(0 -54.95)"/><path class="cls-9" d="M393.29,138.52a.16.16,0,0,1,.16.24c-.85,1.37-4.06,7.23,3.44,7.34,8,.12,12-6.19,12.48-7a.15.15,0,0,1,.15-.07l2.15.21a.34.34,0,0,1,.29.39,19.89,19.89,0,0,1-8.44,12.26,7.88,7.88,0,0,0-6.84-5.08c-5.25-.34-9.41,3.91-9.41,3.91s-1.65-7.09,3.62-11.8a.34.34,0,0,1,.19-.09Z" transform="translate(0 -54.95)"/><path class="cls-10" d="M415,151s-.53,22.44,8.44,30.83c.19-8.36.6-16.42,1.37-22.57a35.13,35.13,0,0,0,.29-5L420.79,151Z" transform="translate(0 -54.95)"/><path class="cls-8" d="M419.9,169s-12.23-26.9-3.26-27.55,17.75,17.84,17.75,17.84Z" transform="translate(0 -54.95)"/><path class="cls-7" d="M422.1,166.6s5.88,15.37,7,24.68a201.81,201.81,0,0,1-5,29.6s-4,4.4-4.81,7.84-2,4.74,2,6.21,7,.16,8.5-1.8.82-11.77.82-11.77,7.84-23.54,8.33-31.87-8-29.1-8-29.1Z" transform="translate(0 -54.95)"/><path class="cls-8" d="M418.4,167.48l.83,2.13a1,1,0,0,0,1.46.47l14.66-9.79a1,1,0,0,0,.29-1.32l-1.18-2a1,1,0,0,0-1.39-.31l-14.3,9.62A1,1,0,0,0,418.4,167.48Z" transform="translate(0 -54.95)"/><path class="cls-9" d="M418.4,167.48l.83,2.13a1,1,0,0,0,1.46.47l14.66-9.79a1,1,0,0,0,.29-1.32l-1.18-2a1,1,0,0,0-1.39-.31l-14.3,9.62A1,1,0,0,0,418.4,167.48Z" transform="translate(0 -54.95)"/><polygon class="cls-11" points="444.38 325.95 427.11 327.68 425.65 321.98 444.69 320.07 444.38 325.95"/><polygon class="cls-14" points="444.38 325.95 427.11 327.68 425.65 321.98 444.69 320.07 444.38 325.95"/><polygon class="cls-11" points="396.59 324.82 379.56 324.09 378.76 318.28 397.89 319.1 396.59 324.82"/><polygon class="cls-14" points="396.59 324.82 379.56 324.09 378.76 318.28 397.89 319.1 396.59 324.82"/></g><g id="Setups"><path class="cls-15" d="M345.64,159.64a3.81,3.81,0,0,1-3.85,4.22h-2.57l-7.36,8.07-8.78-8.07H310.67a4.7,4.7,0,0,1-4.59-4.22l-2.72-31.12a3.8,3.8,0,0,1,3.85-4.21h31.12a4.69,4.69,0,0,1,4.58,4.21Z" transform="translate(0 -54.95)"/><ellipse class="cls-11" cx="330.43" cy="149.01" rx="9.43" ry="10.29" transform="translate(-5.7 229.72) rotate(-46.25)"/><ellipse class="cls-11" cx="320.58" cy="149.01" rx="9.43" ry="10.29" transform="translate(-8.74 222.61) rotate(-46.25)"/><path class="cls-11" d="M314.79,139.16A11,11,0,0,0,325.5,149a8.89,8.89,0,0,0,9-9.85,11,11,0,0,0-10.71-9.85A8.89,8.89,0,0,0,314.79,139.16Z" transform="translate(0 -54.95)"/><ellipse class="cls-16" cx="330.43" cy="149.01" rx="9.43" ry="10.29" transform="translate(-5.7 229.72) rotate(-46.25)"/><ellipse class="cls-10" cx="320.58" cy="149.01" rx="9.43" ry="10.29" transform="translate(-8.74 222.61) rotate(-46.25)"/><path class="cls-17" d="M314.79,139.16A11,11,0,0,0,325.5,149a8.89,8.89,0,0,0,9-9.85,11,11,0,0,0-10.71-9.85A8.89,8.89,0,0,0,314.79,139.16Z" transform="translate(0 -54.95)"/><path class="cls-15" d="M298.88,145.53a2.84,2.84,0,0,1-2.88,3.15h-3.07l-6.14,6.73-7.32-6.73H268.06a3.52,3.52,0,0,1-3.44-3.15l-2.44-27.95a2.85,2.85,0,0,1,2.88-3.16H293a3.53,3.53,0,0,1,3.43,3.16Z" transform="translate(0 -54.95)"/><path class="cls-11" d="M291.22,131h-3.74a7.87,7.87,0,0,0-7-6.42l-.33-3.74a.65.65,0,0,0-.63-.58.53.53,0,0,0-.53.58l.33,3.74a6.32,6.32,0,0,0-5.86,6.42h-3.74a.52.52,0,0,0-.52.58.64.64,0,0,0,.63.58h3.73a7.88,7.88,0,0,0,7,6.42l.33,3.74a.65.65,0,0,0,.63.58.52.52,0,0,0,.53-.58l-.33-3.74a6.31,6.31,0,0,0,5.86-6.42h3.74a.52.52,0,0,0,.53-.58A.65.65,0,0,0,291.22,131Zm-4.9,0H285a5.05,5.05,0,0,0-4.23-3.89l-.12-1.37A6.6,6.6,0,0,1,286.32,131Zm-6.42,0h-2.72a3,3,0,0,1,2.48-2.72Zm.1,1.16.24,2.72a3.74,3.74,0,0,1-2.95-2.72Zm1.16,0h2.72a3,3,0,0,1-2.48,2.72Zm-.1-1.16-.24-2.72a3.8,3.8,0,0,1,3,2.72Zm-1.62-5.26.12,1.37A4,4,0,0,0,276,131h-1.37A5.28,5.28,0,0,1,279.44,125.71Zm-4.7,6.42h1.37a5.06,5.06,0,0,0,4.23,3.89l.12,1.37A6.58,6.58,0,0,1,274.74,132.13Zm6.88,5.26L281.5,136a4,4,0,0,0,3.56-3.89h1.36A5.26,5.26,0,0,1,281.62,137.39Z" transform="translate(0 -54.95)"/><path class="cls-18" d="M291.22,131h-3.74a7.87,7.87,0,0,0-7-6.42l-.33-3.74a.65.65,0,0,0-.63-.58.53.53,0,0,0-.53.58l.33,3.74a6.32,6.32,0,0,0-5.86,6.42h-3.74a.52.52,0,0,0-.52.58.64.64,0,0,0,.63.58h3.73a7.88,7.88,0,0,0,7,6.42l.33,3.74a.65.65,0,0,0,.63.58.52.52,0,0,0,.53-.58l-.33-3.74a6.31,6.31,0,0,0,5.86-6.42h3.74a.52.52,0,0,0,.53-.58A.65.65,0,0,0,291.22,131Zm-4.9,0H285a5.05,5.05,0,0,0-4.23-3.89l-.12-1.37A6.6,6.6,0,0,1,286.32,131Zm-6.42,0h-2.72a3,3,0,0,1,2.48-2.72Zm.1,1.16.24,2.72a3.74,3.74,0,0,1-2.95-2.72Zm1.16,0h2.72a3,3,0,0,1-2.48,2.72Zm-.1-1.16-.24-2.72a3.8,3.8,0,0,1,3,2.72Zm-1.62-5.26.12,1.37A4,4,0,0,0,276,131h-1.37A5.28,5.28,0,0,1,279.44,125.71Zm-4.7,6.42h1.37a5.06,5.06,0,0,0,4.23,3.89l.12,1.37A6.58,6.58,0,0,1,274.74,132.13Zm6.88,5.26L281.5,136a4,4,0,0,0,3.56-3.89h1.36A5.26,5.26,0,0,1,281.62,137.39Z" transform="translate(0 -54.95)"/><path class="cls-11" d="M266.15,123.78h0a.75.75,0,0,1-.73-.67l-.52-6h6a.76.76,0,0,1,.74.68h0a.61.61,0,0,1-.62.67h-4.61l.4,4.62A.61.61,0,0,1,266.15,123.78Z" transform="translate(0 -54.95)"/><path class="cls-11" d="M287.07,117.82h0a.6.6,0,0,1,.61-.68h6l.53,6a.61.61,0,0,1-.62.67h0a.75.75,0,0,1-.73-.67l-.41-4.62H287.8A.75.75,0,0,1,287.07,117.82Z" transform="translate(0 -54.95)"/><path class="cls-11" d="M294.91,139.32h0a.75.75,0,0,1,.73.68l.53,6h-6a.75.75,0,0,1-.73-.67h0a.61.61,0,0,1,.62-.68h4.61l-.41-4.61A.62.62,0,0,1,294.91,139.32Z" transform="translate(0 -54.95)"/><path class="cls-11" d="M274,145.29h0a.61.61,0,0,1-.62.67h-6l-.52-6a.61.61,0,0,1,.61-.68h0a.75.75,0,0,1,.74.68l.4,4.61h4.61A.75.75,0,0,1,274,145.29Z" transform="translate(0 -54.95)"/><g class="cls-19"><path class="cls-11" d="M266.15,123.78h0a.75.75,0,0,1-.73-.67l-.52-6h6a.76.76,0,0,1,.74.68h0a.61.61,0,0,1-.62.67h-4.61l.4,4.62A.61.61,0,0,1,266.15,123.78Z" transform="translate(0 -54.95)"/></g><g class="cls-19"><path class="cls-11" d="M287.07,117.82h0a.6.6,0,0,1,.61-.68h6l.53,6a.61.61,0,0,1-.62.67h0a.75.75,0,0,1-.73-.67l-.41-4.62H287.8A.75.75,0,0,1,287.07,117.82Z" transform="translate(0 -54.95)"/></g><g class="cls-19"><path class="cls-11" d="M294.91,139.32h0a.75.75,0,0,1,.73.68l.53,6h-6a.75.75,0,0,1-.73-.67h0a.61.61,0,0,1,.62-.68h4.61l-.41-4.61A.62.62,0,0,1,294.91,139.32Z" transform="translate(0 -54.95)"/></g><g class="cls-19"><path class="cls-11" d="M274,145.29h0a.61.61,0,0,1-.62.67h-6l-.52-6a.61.61,0,0,1,.61-.68h0a.75.75,0,0,1,.74.68l.4,4.61h4.61A.75.75,0,0,1,274,145.29Z" transform="translate(0 -54.95)"/></g></g><g id="Device"><rect class="cls-11" x="213.56" y="226.89" width="164.36" height="124.97"/><rect class="cls-20" x="213.56" y="226.89" width="164.36" height="124.97"/><rect class="cls-11" x="156.9" y="226.89" width="67.37" height="124.97"/><rect class="cls-21" x="156.9" y="226.89" width="67.37" height="124.97"/><rect class="cls-11" x="237.23" y="241.86" width="128.17" height="29.64"/><rect class="cls-21" x="237.23" y="241.86" width="128.17" height="29.64"/><rect class="cls-11" x="237.23" y="275.66" width="128.17" height="29.64"/><rect class="cls-21" x="237.23" y="275.66" width="128.17" height="29.64"/><rect class="cls-11" x="237.23" y="309.46" width="128.17" height="29.64"/><rect class="cls-21" x="237.23" y="309.46" width="128.17" height="29.64"/><path class="cls-11" d="M309.26,303.72h-15.9a5.65,5.65,0,0,1-5.33-3.8l-1.08-3.1h28.72l-1.08,3.1A5.64,5.64,0,0,1,309.26,303.72Z" transform="translate(0 -54.95)"/><path class="cls-22" d="M309.26,303.72h-15.9a5.65,5.65,0,0,1-5.33-3.8l-1.08-3.1h28.72l-1.08,3.1A5.64,5.64,0,0,1,309.26,303.72Z" transform="translate(0 -54.95)"/><path class="cls-11" d="M309.73,296.82l-1.08,3.1a5.65,5.65,0,0,1-5.33,3.8h5.94a5.64,5.64,0,0,0,5.33-3.8l1.08-3.1Z" transform="translate(0 -54.95)"/><path class="cls-17" d="M309.73,296.82l-1.08,3.1a5.65,5.65,0,0,1-5.33,3.8h5.94a5.64,5.64,0,0,0,5.33-3.8l1.08-3.1Z" transform="translate(0 -54.95)"/><path class="cls-11" d="M309.26,337.52h-15.9a5.65,5.65,0,0,1-5.33-3.8l-1.08-3.1h28.72l-1.08,3.1A5.64,5.64,0,0,1,309.26,337.52Z" transform="translate(0 -54.95)"/><path class="cls-22" d="M309.26,337.52h-15.9a5.65,5.65,0,0,1-5.33-3.8l-1.08-3.1h28.72l-1.08,3.1A5.64,5.64,0,0,1,309.26,337.52Z" transform="translate(0 -54.95)"/><path class="cls-11" d="M309.73,330.62l-1.08,3.1a5.65,5.65,0,0,1-5.33,3.8h5.94a5.64,5.64,0,0,0,5.33-3.8l1.08-3.1Z" transform="translate(0 -54.95)"/><path class="cls-17" d="M309.73,330.62l-1.08,3.1a5.65,5.65,0,0,1-5.33,3.8h5.94a5.64,5.64,0,0,0,5.33-3.8l1.08-3.1Z" transform="translate(0 -54.95)"/><path class="cls-11" d="M309.26,371.32h-15.9a5.65,5.65,0,0,1-5.33-3.8L287,364.41h28.72l-1.08,3.11A5.64,5.64,0,0,1,309.26,371.32Z" transform="translate(0 -54.95)"/><path class="cls-22" d="M309.26,371.32h-15.9a5.65,5.65,0,0,1-5.33-3.8L287,364.41h28.72l-1.08,3.11A5.64,5.64,0,0,1,309.26,371.32Z" transform="translate(0 -54.95)"/><path class="cls-11" d="M309.73,364.41l-1.08,3.11a5.65,5.65,0,0,1-5.33,3.8h5.94a5.64,5.64,0,0,0,5.33-3.8l1.08-3.11Z" transform="translate(0 -54.95)"/><path class="cls-17" d="M309.73,364.41l-1.08,3.11a5.65,5.65,0,0,1-5.33,3.8h5.94a5.64,5.64,0,0,0,5.33-3.8l1.08-3.11Z" transform="translate(0 -54.95)"/><rect class="cls-11" x="227.33" y="226.89" width="154.34" height="6.76"/><rect class="cls-23" x="227.33" y="226.89" width="154.34" height="6.76"/><rect class="cls-11" x="153.15" y="226.89" width="76.58" height="6.76"/><rect class="cls-20" x="153.15" y="226.89" width="76.58" height="6.76"/><path class="cls-24" d="M292.84,226.71h64.78a0,0,0,0,1,0,0v24.83a6.6,6.6,0,0,1-6.6,6.6H302.38a9.54,9.54,0,0,1-9.54-9.54V226.71A0,0,0,0,1,292.84,226.71Z"/><path class="cls-8" d="M297.47,218.45h.86a1.55,1.55,0,0,0,1.57-1.87l-7.49-47.29a2.27,2.27,0,0,0-2.17-1.87H174.45l8.08,51Z" transform="translate(0 -54.95)"/><path class="cls-22" d="M297.47,218.45h.86a1.55,1.55,0,0,0,1.57-1.87l-7.49-47.29a2.27,2.27,0,0,0-2.17-1.87H174.45l8.08,51Z" transform="translate(0 -54.95)"/><path class="cls-8" d="M183,218.45h0a2.8,2.8,0,0,1-2.67-2.3l-7.35-46.43a1.91,1.91,0,0,1,1.93-2.3h0a2.81,2.81,0,0,1,2.67,2.3l7.35,46.43A1.92,1.92,0,0,1,183,218.45Z" transform="translate(0 -54.95)"/><path class="cls-25" d="M183,218.45h0a2.8,2.8,0,0,1-2.67-2.3l-7.35-46.43a1.91,1.91,0,0,1,1.93-2.3h0a2.81,2.81,0,0,1,2.67,2.3l7.35,46.43A1.92,1.92,0,0,1,183,218.45Z" transform="translate(0 -54.95)"/><path class="cls-11" d="M343.07,281.76H194.28l8.5-75.22h138.6a9.1,9.1,0,0,1,9,10.12Z" transform="translate(0 -54.95)"/><path class="cls-25" d="M341.38,206.54H205.2V215H350.45A9.1,9.1,0,0,0,341.38,206.54Z" transform="translate(0 -54.95)"/><path class="cls-11" d="M210.4,281.76H169.66v-67.6a7.62,7.62,0,0,1,7.62-7.62h31.43a9.1,9.1,0,0,1,9,10.12Z" transform="translate(0 -54.95)"/><path class="cls-26" d="M210.4,281.76H169.66v-67.6a7.62,7.62,0,0,1,7.62-7.62h31.43a9.1,9.1,0,0,1,9,10.12Z" transform="translate(0 -54.95)"/><polygon class="cls-8" points="333.66 224.19 336.35 200.39 224.57 200.39 221.88 224.19 333.66 224.19"/><path class="cls-8" d="M267.25,220.36H380.32a1.71,1.71,0,0,1,1.71,1.71v.41a1.71,1.71,0,0,1-1.71,1.71H267.25a0,0,0,0,1,0,0v-3.83a0,0,0,0,1,0,0Z"/><path class="cls-27" d="M267.25,220.36H380.32a1.71,1.71,0,0,1,1.71,1.71v.41a1.71,1.71,0,0,1-1.71,1.71H267.25a0,0,0,0,1,0,0v-3.83a0,0,0,0,1,0,0Z"/><path class="cls-8" d="M334.09,275.31h30.55a8.07,8.07,0,0,0-8.07-8.07H335Z" transform="translate(0 -54.95)"/><path class="cls-16" d="M334.09,275.31h30.55a8.07,8.07,0,0,0-8.07-8.07H335Z" transform="translate(0 -54.95)"/><polygon class="cls-24" points="201.07 151.59 270.53 151.59 265.82 112.47 196.35 112.47 201.07 151.59"/><path class="cls-11" d="M316.15,275.3a13.15,13.15,0,0,0,13.32-14.88,13.14,13.14,0,0,1,13.31-14.88H279.1a13.15,13.15,0,0,0-13.32,14.88,13.15,13.15,0,0,1-13.32,14.88Z" transform="translate(0 -54.95)"/><path class="cls-21" d="M316.15,275.3a13.15,13.15,0,0,0,13.32-14.88,13.14,13.14,0,0,1,13.31-14.88H279.1a13.15,13.15,0,0,0-13.32,14.88,13.15,13.15,0,0,1-13.32,14.88Z" transform="translate(0 -54.95)"/><path class="cls-11" d="M373.24,302.51a10.92,10.92,0,0,1-10.6-9.59l-3.41-32.5a16.94,16.94,0,0,0-16.45-14.88H279.1a16.93,16.93,0,0,1,16.44,14.88l3.42,32.5a10.9,10.9,0,0,0,10.6,9.59Z" transform="translate(0 -54.95)"/><path class="cls-23" d="M373.24,302.51a10.92,10.92,0,0,1-10.6-9.59l-3.41-32.5a16.94,16.94,0,0,0-16.45-14.88H279.1a16.93,16.93,0,0,1,16.44,14.88l3.42,32.5a10.9,10.9,0,0,0,10.6,9.59Z" transform="translate(0 -54.95)"/><path class="cls-11" d="M373.24,302.51a8.47,8.47,0,0,0,8.58-9.59H318.13a8.47,8.47,0,0,1-8.58,9.59Z" transform="translate(0 -54.95)"/><path class="cls-17" d="M373.24,302.51a8.47,8.47,0,0,0,8.58-9.59H318.13a8.47,8.47,0,0,1-8.58,9.59Z" transform="translate(0 -54.95)"/><path class="cls-8" d="M270.93,275.31h-8.61a8.07,8.07,0,0,0-8.08-8.07h-31l-.91,8.07-.43,3.83h49.05a1.45,1.45,0,0,0,1.45-1.45v-.92A1.45,1.45,0,0,0,270.93,275.31Z" transform="translate(0 -54.95)"/><path class="cls-16" d="M270.93,275.31h-8.61a8.07,8.07,0,0,0-8.08-8.07h-31l-.91,8.07-.43,3.83h49.05a1.45,1.45,0,0,0,1.45-1.45v-.92A1.45,1.45,0,0,0,270.93,275.31Z" transform="translate(0 -54.95)"/><rect class="cls-11" x="158.31" y="187.64" width="45.68" height="39.17"/><rect class="cls-11" x="158.31" y="187.64" width="6.69" height="39.17"/><rect class="cls-25" x="158.31" y="187.64" width="6.69" height="39.17"/><rect class="cls-8" x="158.31" y="213.19" width="6.69" height="13.62"/><rect class="cls-11" x="185.07" y="187.64" width="18.92" height="39.17"/><rect class="cls-21" x="185.07" y="187.64" width="18.92" height="39.17"/><rect class="cls-11" x="185.07" y="204.97" width="18.92" height="21.84"/><rect class="cls-11" x="178.38" y="187.64" width="6.69" height="39.17"/><rect class="cls-22" x="178.38" y="187.64" width="6.69" height="39.17"/><rect class="cls-11" x="178.38" y="204.97" width="6.69" height="21.84"/><rect class="cls-10" x="178.38" y="204.97" width="6.69" height="21.84"/><rect class="cls-11" x="171.69" y="187.64" width="6.69" height="39.17"/><rect class="cls-28" x="171.69" y="187.64" width="6.69" height="39.17"/><rect class="cls-11" x="171.69" y="209.79" width="6.69" height="17.02"/><rect class="cls-26" x="171.69" y="209.79" width="6.69" height="17.02"/><rect class="cls-11" x="165" y="187.64" width="6.69" height="39.17"/><rect class="cls-16" x="165" y="187.64" width="6.69" height="39.17"/><rect class="cls-11" x="165" y="207.22" width="6.69" height="19.59"/><rect class="cls-29" x="165" y="207.22" width="6.69" height="19.59"/><path class="cls-30" d="M183.5,277.84a1.62,1.62,0,0,1-3.23,0c0-.89,1.61-2.89,1.61-2.89S183.5,277,183.5,277.84Z" transform="translate(0 -54.95)"/><path class="cls-11" d="M182.86,278a.52.52,0,0,1-.52.52c-.29,0-.11-.23-.11-.52s-.18-.52.11-.52A.52.52,0,0,1,182.86,278Z" transform="translate(0 -54.95)"/><path class="cls-30" d="M176.64,277.84a1.61,1.61,0,1,1-3.22,0c0-.89,1.61-2.89,1.61-2.89S176.64,277,176.64,277.84Z" transform="translate(0 -54.95)"/><path class="cls-11" d="M176,278a.52.52,0,0,1-.52.52c-.29,0-.11-.23-.11-.52s-.18-.52.11-.52A.52.52,0,0,1,176,278Z" transform="translate(0 -54.95)"/><path class="cls-30" d="M169.35,277.84a1.61,1.61,0,1,1-3.22,0c0-.89,1.61-2.89,1.61-2.89S169.35,277,169.35,277.84Z" transform="translate(0 -54.95)"/><path class="cls-11" d="M168.71,278a.52.52,0,0,1-.52.52c-.29,0-.11-.23-.11-.52s-.18-.52.11-.52A.52.52,0,0,1,168.71,278Z" transform="translate(0 -54.95)"/><path class="cls-30" d="M163.27,277.84a1.62,1.62,0,0,1-3.23,0c0-.89,1.62-2.89,1.62-2.89S163.27,277,163.27,277.84Z" transform="translate(0 -54.95)"/><path class="cls-11" d="M162.63,278a.52.52,0,0,1-.52.52c-.29,0-.11-.23-.11-.52s-.18-.52.11-.52A.52.52,0,0,1,162.63,278Z" transform="translate(0 -54.95)"/><polygon class="cls-11" points="276.86 151.59 207.39 151.59 199.02 98.74 268.49 98.74 276.86 151.59"/><polygon class="cls-23" points="276.86 151.59 207.39 151.59 199.02 98.74 268.49 98.74 276.86 151.59"/><path class="cls-11" d="M234.73,212H334a9.09,9.09,0,0,0-8.33-5.45H226.39A9.11,9.11,0,0,1,234.73,212Z" transform="translate(0 -54.95)"/><path class="cls-22" d="M234.73,212H334a9.09,9.09,0,0,0-8.33-5.45H226.39A9.11,9.11,0,0,1,234.73,212Z" transform="translate(0 -54.95)"/><path class="cls-11" d="M344.86,268.58c-6.21-1.24-11.53-3.17-10.77-6s9.71,5.61,10.79,0-13.7-4.41-7.93-8.52c3.19-2.27,3.17-5.82,2.51-8.54h-8.78c-.47,2.25.32,4.71-1.3,5s-2.38-2.5-3.44-5h-6.26c.83,3.89,6.76,9,3.48,11.25-4.32,3-12.94-14.45-17.75-6.83s15.42,11.23,13.4,15.45S303,260,304,268.58s17.84,4.79,17.84,4.79L318,279.84l2.29,1.82,2-5.58c2.23-5.38,3.77-1.21,5.56,1.36,5.76,8.25,19.79,3.41,8.27-2.27s-7.19-6.15,2.92-1.8S351.07,269.82,344.86,268.58Z" transform="translate(0 -54.95)"/><path class="cls-25" d="M344.86,268.58c-6.21-1.24-11.53-3.17-10.77-6s9.71,5.61,10.79,0-13.7-4.41-7.93-8.52c3.19-2.27,3.17-5.82,2.51-8.54h-8.78c-.47,2.25.32,4.71-1.3,5s-2.38-2.5-3.44-5h-6.26c.83,3.89,6.76,9,3.48,11.25-4.32,3-12.94-14.45-17.75-6.83s15.42,11.23,13.4,15.45S303,260,304,268.58s17.84,4.79,17.84,4.79L318,279.84l2.29,1.82,2-5.58c2.23-5.38,3.77-1.21,5.56,1.36,5.76,8.25,19.79,3.41,8.27-2.27s-7.19-6.15,2.92-1.8S351.07,269.82,344.86,268.58Z" transform="translate(0 -54.95)"/></g><g id="Desk"><path class="cls-11" d="M98,408.07H79.63a6.49,6.49,0,0,1-6.48-6.48V324.46h31.34v77.13A6.49,6.49,0,0,1,98,408.07ZM77.15,328.46v73.13a2.49,2.49,0,0,0,2.48,2.48H98a2.49,2.49,0,0,0,2.48-2.48V328.46Z" transform="translate(0 -54.95)"/><g class="cls-31"><path class="cls-11" d="M98,408.07H79.63a6.49,6.49,0,0,1-6.48-6.48V324.46h31.34v77.13A6.49,6.49,0,0,1,98,408.07ZM77.15,328.46v73.13a2.49,2.49,0,0,0,2.48,2.48H98a2.49,2.49,0,0,0,2.48-2.48V328.46Z" transform="translate(0 -54.95)"/></g><path class="cls-11" d="M167.68,408.07H149.31a6.49,6.49,0,0,1-6.48-6.48V324.46h31.33v77.13A6.48,6.48,0,0,1,167.68,408.07Zm-20.85-79.61v73.13a2.48,2.48,0,0,0,2.48,2.48h18.37a2.48,2.48,0,0,0,2.48-2.48V328.46Z" transform="translate(0 -54.95)"/><g class="cls-31"><path class="cls-11" d="M167.68,408.07H149.31a6.49,6.49,0,0,1-6.48-6.48V324.46h31.33v77.13A6.48,6.48,0,0,1,167.68,408.07Zm-20.85-79.61v73.13a2.48,2.48,0,0,0,2.48,2.48h18.37a2.48,2.48,0,0,0,2.48-2.48V328.46Z" transform="translate(0 -54.95)"/></g><g class="cls-19"><path class="cls-30" d="M98,408.07H79.63a6.49,6.49,0,0,1-6.48-6.48V324.46h31.34v77.13A6.49,6.49,0,0,1,98,408.07ZM77.15,328.46v73.13a2.49,2.49,0,0,0,2.48,2.48H98a2.49,2.49,0,0,0,2.48-2.48V328.46Z" transform="translate(0 -54.95)"/><g class="cls-31"><path class="cls-30" d="M98,408.07H79.63a6.49,6.49,0,0,1-6.48-6.48V324.46h31.34v77.13A6.49,6.49,0,0,1,98,408.07ZM77.15,328.46v73.13a2.49,2.49,0,0,0,2.48,2.48H98a2.49,2.49,0,0,0,2.48-2.48V328.46Z" transform="translate(0 -54.95)"/></g></g><g class="cls-19"><path class="cls-30" d="M167.68,408.07H149.31a6.49,6.49,0,0,1-6.48-6.48V324.46h31.33v77.13A6.48,6.48,0,0,1,167.68,408.07Zm-20.85-79.61v73.13a2.48,2.48,0,0,0,2.48,2.48h18.37a2.48,2.48,0,0,0,2.48-2.48V328.46Z" transform="translate(0 -54.95)"/><g class="cls-31"><path class="cls-30" d="M167.68,408.07H149.31a6.49,6.49,0,0,1-6.48-6.48V324.46h31.33v77.13A6.48,6.48,0,0,1,167.68,408.07Zm-20.85-79.61v73.13a2.48,2.48,0,0,0,2.48,2.48h18.37a2.48,2.48,0,0,0,2.48-2.48V328.46Z" transform="translate(0 -54.95)"/></g></g><rect class="cls-11" x="98.88" y="246.98" width="76.37" height="28.69"/><rect class="cls-20" x="98.88" y="246.98" width="76.37" height="28.69"/><rect class="cls-11" x="72.56" y="246.98" width="31.3" height="28.69"/><rect class="cls-21" x="72.56" y="246.98" width="31.3" height="28.69"/><rect class="cls-11" x="104.53" y="240.4" width="74.59" height="8.36"/><rect class="cls-23" x="104.53" y="240.4" width="74.59" height="8.36"/><rect class="cls-11" x="68.68" y="240.4" width="37.01" height="8.36"/><rect class="cls-20" x="68.68" y="240.4" width="37.01" height="8.36"/><rect class="cls-11" x="109.99" y="253.55" width="59.12" height="16.5"/><rect class="cls-21" x="109.99" y="253.55" width="59.12" height="16.5"/><path class="cls-11" d="M143.55,317a2.28,2.28,0,1,0,0-4.56h-3a2.28,2.28,0,0,0,0,4.56Z" transform="translate(0 -54.95)"/><path class="cls-16" d="M143.55,317a2.28,2.28,0,1,0,0-4.56h-3a2.28,2.28,0,0,0,0,4.56Z" transform="translate(0 -54.95)"/><path class="cls-11" d="M145.83,314.75a2.28,2.28,0,1,1-2.28-2.28A2.28,2.28,0,0,1,145.83,314.75Z" transform="translate(0 -54.95)"/><path class="cls-22" d="M145.83,314.75a2.28,2.28,0,1,1-2.28-2.28A2.28,2.28,0,0,1,145.83,314.75Z" transform="translate(0 -54.95)"/><path class="cls-8" d="M136.28,291.13h.86c1,0,1.74-.67,1.57-1.5l-7.49-38.12a2.18,2.18,0,0,0-2.17-1.51H69.47l8.09,41.13Z" transform="translate(0 -54.95)"/><path class="cls-20" d="M136.28,291.13h.86c1,0,1.74-.67,1.57-1.5l-7.49-38.12a2.18,2.18,0,0,0-2.17-1.51H69.47l8.09,41.13Z" transform="translate(0 -54.95)"/><path class="cls-8" d="M78,291.13h0a2.67,2.67,0,0,1-2.66-1.85L68,251.85c-.2-1,.66-1.85,1.93-1.85h0a2.68,2.68,0,0,1,2.66,1.85l7.36,37.43C80.12,290.31,79.25,291.13,78,291.13Z" transform="translate(0 -54.95)"/><path class="cls-17" d="M78,291.13h0a2.67,2.67,0,0,1-2.66-1.85L68,251.85c-.2-1,.66-1.85,1.93-1.85h0a2.68,2.68,0,0,1,2.66,1.85l7.36,37.43C80.12,290.31,79.25,291.13,78,291.13Z" transform="translate(0 -54.95)"/><path class="cls-8" d="M111.68,236.18h64.64a0,0,0,0,1,0,0v.58a3.68,3.68,0,0,1-3.68,3.68h-61a0,0,0,0,1,0,0v-4.27A0,0,0,0,1,111.68,236.18Z"/><path class="cls-21" d="M111.68,236.18h64.64a0,0,0,0,1,0,0v.58a3.68,3.68,0,0,1-3.68,3.68h-61a0,0,0,0,1,0,0v-4.27A0,0,0,0,1,111.68,236.18Z"/><path class="cls-8" d="M77.82,236.18H123a0,0,0,0,1,0,0v.58a3.68,3.68,0,0,1-3.68,3.68H81.5a3.68,3.68,0,0,1-3.68-3.68v-.58a0,0,0,0,1,0,0Z"/><path class="cls-22" d="M77.82,236.18H123a0,0,0,0,1,0,0v.58a3.68,3.68,0,0,1-3.68,3.68H81.5a3.68,3.68,0,0,1-3.68-3.68v-.58a0,0,0,0,1,0,0Z"/><path class="cls-10" d="M151.58,291.13a1.57,1.57,0,0,0,1.69,1.34h7a1.57,1.57,0,0,0,1.69-1.34Z" transform="translate(0 -54.95)"/><polygon class="cls-30" points="134.13 232.94 83.38 232.94 76.52 198.05 127.27 198.05 134.13 232.94"/><path class="cls-11" d="M97.57,285.48l4.06-5.38s-14.49,3.15-14.19-4,10.5.87,12.73-2.63-14.1-6.5-9.1-12.84,9.87,8.19,13.85,5.68-4.65-9,0-12,3.33,7.33,6,6.83-1-7.59,8.33-7.38c0,0,2.83,6.89-2.5,10.3s7.11,2.42,5.47,7.08-8-2.33-9,0,3.17,3.94,8.17,5,2.33,7.61-5.5,4-11.5-3.23-2.67,1.49-3.46,8.74-7.17,1.89c-1.15-2.14-1.88-5.6-4.44-1.14L99.24,287Z" transform="translate(0 -54.95)"/><path class="cls-8" d="M102.44,251.22a.77.77,0,1,1-.75-.6A.69.69,0,0,1,102.44,251.22Z" transform="translate(0 -54.95)"/></g></svg>