<svg xmlns="http://www.w3.org/2000/svg" viewBox="0 0 41.54 38.28"><title>Asset 2</title><g id="Layer_2" data-name="Layer 2"><g id="Objects"><circle cx="1.56" cy="1.56" r="1.56"/><path d="M15.92,1.56a1.56,1.56,0,0,1-3.11,0,1.56,1.56,0,1,1,3.11,0Z"/><circle cx="27.18" cy="1.56" r="1.56"/><circle cx="39.99" cy="1.56" r="1.56"/><path d="M3.11,13.28a1.56,1.56,0,1,1-1.55-1.56A1.55,1.55,0,0,1,3.11,13.28Z"/><path d="M15.92,13.28a1.56,1.56,0,1,1-1.55-1.56A1.55,1.55,0,0,1,15.92,13.28Z"/><path d="M28.73,13.28a1.56,1.56,0,1,1-1.55-1.56A1.55,1.55,0,0,1,28.73,13.28Z"/><path d="M41.54,13.28A1.56,1.56,0,1,1,40,11.72,1.55,1.55,0,0,1,41.54,13.28Z"/><circle cx="1.56" cy="25" r="1.56"/><path d="M15.92,25a1.56,1.56,0,1,1-1.55-1.55A1.55,1.55,0,0,1,15.92,25Z"/><circle cx="27.18" cy="25" r="1.56"/><circle cx="39.99" cy="25" r="1.56"/><path d="M3.11,36.73a1.56,1.56,0,0,1-3.11,0,1.56,1.56,0,1,1,3.11,0Z"/><path d="M15.92,36.73a1.56,1.56,0,0,1-3.11,0,1.56,1.56,0,1,1,3.11,0Z"/><path d="M28.73,36.73a1.56,1.56,0,0,1-3.11,0,1.56,1.56,0,1,1,3.11,0Z"/><path d="M41.54,36.73a1.56,1.56,0,0,1-3.11,0,1.56,1.56,0,1,1,3.11,0Z"/></g></g></svg>