<svg xmlns="http://www.w3.org/2000/svg" viewBox="0 0 75.57 36.17"><defs><style>.cls-1{fill:#0076f5;}</style></defs><title>Asset 1</title><g id="Layer_2" data-name="Layer 2"><g id="Objects"><circle class="cls-1" cx="1.47" cy="1.47" r="1.47"/><circle class="cls-1" cx="13.58" cy="1.47" r="1.47"/><circle class="cls-1" cx="25.68" cy="1.47" r="1.47"/><circle class="cls-1" cx="37.78" cy="1.47" r="1.47"/><circle class="cls-1" cx="49.89" cy="1.47" r="1.47"/><circle class="cls-1" cx="61.99" cy="1.47" r="1.47"/><circle class="cls-1" cx="74.1" cy="1.47" r="1.47"/><circle class="cls-1" cx="1.47" cy="12.55" r="1.47"/><circle class="cls-1" cx="13.58" cy="12.55" r="1.47"/><circle class="cls-1" cx="25.68" cy="12.55" r="1.47"/><circle class="cls-1" cx="37.78" cy="12.55" r="1.47"/><circle class="cls-1" cx="49.89" cy="12.55" r="1.47"/><circle class="cls-1" cx="61.99" cy="12.55" r="1.47"/><circle class="cls-1" cx="74.1" cy="12.55" r="1.47"/><circle class="cls-1" cx="1.47" cy="23.63" r="1.47"/><circle class="cls-1" cx="13.58" cy="23.63" r="1.47"/><circle class="cls-1" cx="25.68" cy="23.63" r="1.47"/><circle class="cls-1" cx="37.78" cy="23.63" r="1.47"/><circle class="cls-1" cx="49.89" cy="23.63" r="1.47"/><circle class="cls-1" cx="61.99" cy="23.63" r="1.47"/><circle class="cls-1" cx="74.1" cy="23.63" r="1.47"/><circle class="cls-1" cx="1.47" cy="34.7" r="1.47"/><circle class="cls-1" cx="13.58" cy="34.7" r="1.47"/><circle class="cls-1" cx="25.68" cy="34.7" r="1.47"/><circle class="cls-1" cx="37.78" cy="34.7" r="1.47"/><circle class="cls-1" cx="49.89" cy="34.7" r="1.47"/><circle class="cls-1" cx="61.99" cy="34.7" r="1.47"/><circle class="cls-1" cx="74.1" cy="34.7" r="1.47"/></g></g></svg>