<svg xmlns="http://www.w3.org/2000/svg" width="236.2" height="236.2" viewBox="0 0 2362 2362">
  <defs>
    <style>
      .cls-1 {
        fill: #ffffff;
        fill-rule: evenodd;
      }
    </style>
  </defs>
  <path id="Color_Fill_1" data-name="Color Fill 1" class="cls-1" d="M1134,63c111.71-1.329,213.81,1.74,298,27,355.83,106.756,600.09,404.938,694,775,25.53,100.615,34.98,210.92,35,340,0.01,54.65.7,106.57-8,155-14.95,83.21-28.06,159.35-51,232-97.4,308.45-340.56,583.06-649,680-53.36,16.77-109.79,21.58-172,32q-45,.495-90,1c-157.15.02-282.948-31.55-383-90-37.754-22.06-74.446-40.49-109-65-47.5-33.69-89.39-73.38-130-114-149.9-149.92-242.659-317.81-303-559-22.714-90.79-28.986-192.3-29-307,0-42.72-2.583-85.13,4-124,12.755-75.315,18.074-146.56,38-213,63.7-212.385,159.916-370.938,297-508,77.848-77.836,166.854-146.677,275-194,53.7-23.5,111.786-40.965,175-55l79-11Zm51,101-40,3-83,13c-36.98,9.2-74.056,17.8-108,31l-54,22q0.5,497.95,1,996v-2q142.986-204.975,286-410l3,2q152.985,220.978,306,442h1q-0.495-514.449-1-1029-36-14-72-28C1353.08,181.035,1277.46,165.254,1185,164Zm481,169V1505l209,300c0.67-.33,1.33-0.67,2-1q10.5-16.995,21-34,22.005-40.995,44-82c39.41-89.31,72.8-182.47,96-290,78.54-364.08-60.17-703.439-214-907C1779.02,431.477,1727.67,375.652,1666,333Zm-936,1-39,31a556.5,556.5,0,0,0-88,88C490.861,594.582,418.305,736.756,367,942c-20.549,82.21-42.225,227.29-25,329,9.926,58.61,13.345,115.44,27,169,23.037,90.36,52.875,170.5,87,248l55,100c0.667-.33,1.333-0.67,2-1q108.988-156.99,218-314Q730.5,903.555,730,334Zm459,600L555,1852l6,9c14.721,0.24,86.912,3.39,93-2q267.974-384.465,536-769c0.67,0.33,1.33.67,2,1q268.98,387.96,538,776,51.99-.495,104-1v-1q-81.495-118.995-163-238-39.99-55.5-80-111c-77.16-107.34-150.12-217.97-225-326-38.85-56.05-78.43-111.8-116-168C1238.9,1005.4,1202.38,941.322,1189,934Zm-2,190q-131.49,189.48-263,379l525-3Q1318.02,1312.02,1187,1124Zm297,442c-15.9,6.37-24.26-.67-38,1q-40.5.495-81,1-142.485.495-285,1-73.5.495-147,1c-20.777,1.82-43-6.55-59,3q-29,42.99-58,86l739-6c-0.33-1-.67-2-1-3-12.08-12.03-51.36-82.99-63-82C1488.67,1567.33,1486.33,1566.67,1484,1566ZM900,2015H731V1781c-0.667.33-1.333,0.67-2,1l-68,100H577c96.473,133.07,244.955,234.3,419,289,344.91,108.41,681.44-89.98,825-289-16.29.23-100.44,3.79-107-2q-23.505-33.99-47-68h-1v203H1497q0.495-169.485,1-339-299.475,2.505-599,5Q899.5,1847.98,900,2015Z"/>
</svg>
