<svg xmlns="http://www.w3.org/2000/svg" viewBox="0 0 500 500"><defs><style>.cls-1,.cls-7{fill:#ebebeb;}.cls-2{fill:#f0f0f0;}.cls-3{fill:#e0e0e0;}.cls-4{fill:#fafafa;}.cls-13,.cls-15,.cls-16,.cls-20,.cls-5{fill:#fff;}.cls-6{fill:#e6e6e6;}.cls-7{opacity:0.6;}.cls-8{fill:#f5f5f5;}.cls-9{fill:#407bff;}.cls-10,.cls-16{opacity:0.3;}.cls-11,.cls-12{fill:#263238;}.cls-12,.cls-15{opacity:0.7;}.cls-13{opacity:0.1;}.cls-14{fill:#ffc3bd;}.cls-17{fill:#ed847e;}.cls-18,.cls-20{opacity:0.2;}.cls-19{opacity:0.4;}</style></defs><title>Artboard 1</title><g id="Background_Complete" data-name="Background Complete"><rect class="cls-1" y="382.4" width="500" height="0.25"/><rect class="cls-1" x="52.46" y="391.92" width="77.91" height="0.25"/><rect class="cls-1" x="412" y="399.53" width="37.9" height="0.25"/><rect class="cls-1" x="131.37" y="401.21" width="19.19" height="0.25"/><rect class="cls-1" x="202.17" y="389.21" width="43.19" height="0.25"/><rect class="cls-1" x="254.26" y="389.21" width="6.33" height="0.25"/><rect class="cls-1" x="327.67" y="395.31" width="43.22" height="0.25"/><path class="cls-1" d="M237,337.8H43.91a5.71,5.71,0,0,1-5.7-5.71V60.66A5.71,5.71,0,0,1,43.91,55H237a5.71,5.71,0,0,1,5.71,5.71V332.09A5.71,5.71,0,0,1,237,337.8ZM43.91,55.2a5.46,5.46,0,0,0-5.45,5.46V332.09a5.46,5.46,0,0,0,5.45,5.46H237a5.47,5.47,0,0,0,5.46-5.46V60.66A5.47,5.47,0,0,0,237,55.2Z"/><path class="cls-1" d="M453.31,337.8H260.21a5.72,5.72,0,0,1-5.71-5.71V60.66A5.72,5.72,0,0,1,260.21,55h193.1A5.71,5.71,0,0,1,459,60.66V332.09A5.71,5.71,0,0,1,453.31,337.8ZM260.21,55.2a5.47,5.47,0,0,0-5.46,5.46V332.09a5.47,5.47,0,0,0,5.46,5.46h193.1a5.47,5.47,0,0,0,5.46-5.46V60.66a5.47,5.47,0,0,0-5.46-5.46Z"/><rect class="cls-2" x="66.54" y="76.46" width="76.78" height="134.64"/><rect class="cls-3" x="63.48" y="73.69" width="76.44" height="35.78"/><rect class="cls-4" x="63.48" y="111.57" width="76.44" height="42.4"/><rect class="cls-4" x="63.48" y="156.09" width="76.44" height="42.4"/><rect class="cls-5" x="62.59" y="132.14" width="78.22" height="9"/><path class="cls-3" d="M122.51,143H100.84V130.31h21.67Zm-20.67-1h19.67V131.31H101.84Z"/><rect class="cls-6" x="206.52" y="73.69" width="240.45" height="86.03" transform="translate(653.49 233.42) rotate(180)"/><rect class="cls-2" x="201.5" y="73.69" width="243.13" height="86.03" transform="translate(646.12 233.42) rotate(180)"/><rect class="cls-6" x="206.52" y="159.73" width="240.45" height="4.66" transform="translate(653.49 324.12) rotate(180)"/><rect class="cls-2" x="193.13" y="159.73" width="243.13" height="4.66" transform="translate(629.4 324.12) rotate(180)"/><rect class="cls-4" x="287.08" y="2.18" width="71.97" height="229.07" transform="translate(439.77 -206.35) rotate(90)"/><polygon class="cls-5" points="236.08 152.7 263.51 80.72 282.98 80.72 255.56 152.7 236.08 152.7"/><polygon class="cls-5" points="370.82 152.7 398.25 80.72 417.72 80.72 390.3 152.7 370.82 152.7"/><polygon class="cls-5" points="259.74 152.7 287.17 80.72 294.76 80.72 267.33 152.7 259.74 152.7"/><rect class="cls-6" x="172.99" y="116.26" width="71.97" height="0.89" transform="translate(325.68 -92.26) rotate(90)"/><polygon class="cls-7" points="199.84 86.02 440.29 86.02 440.94 83.46 200.48 83.46 199.84 86.02"/><polygon class="cls-7" points="199.84 90.23 440.29 90.23 440.94 87.66 200.48 87.66 199.84 90.23"/><polygon class="cls-7" points="199.84 94.44 440.29 94.44 440.94 91.87 200.48 91.87 199.84 94.44"/><polygon class="cls-7" points="199.84 98.64 440.29 98.64 440.94 96.08 200.48 96.08 199.84 98.64"/><polygon class="cls-7" points="199.84 102.85 440.29 102.85 440.94 100.28 200.48 100.28 199.84 102.85"/><polygon class="cls-7" points="199.84 107.06 440.29 107.06 440.94 104.49 200.48 104.49 199.84 107.06"/><path class="cls-3" d="M45.85,238.74a.92.92,0,0,1,.7-.44c4.21-.34,9.65,3.17,12.89,5.63a45.94,45.94,0,0,0-2.63-5.26,1.15,1.15,0,0,1-.06-.17s0-.05,0-.08c-.06-.24-1.41-6,3-9.64a.91.91,0,0,1,.79-.18.92.92,0,0,1,.62.53,8,8,0,0,1-2.37,9.29,72.58,72.58,0,0,1,5.15,12c.52-4,1.75-9.77,4.67-12.45a.9.9,0,0,1,.8-.22h0a.88.88,0,0,1,.64.53c2.48,5.89.15,9.3-2.31,12.9A38.09,38.09,0,0,0,65.36,255c1.07,3.52,2.09,7.24,3,11.07.71-5.71,2.44-14.06,6.6-17.89a.89.89,0,0,1,.81-.22,1,1,0,0,1,.64.54c3.46,8.25.19,13-3.28,18.11A54.3,54.3,0,0,0,69.76,272c1.18,5.37,2.19,10.78,3,15.89,1-7.81,3.21-19.16,8.37-23.74a.87.87,0,0,1,.81-.2.9.9,0,0,1,.63.54c4.26,10.66-.52,18.28-5.14,25.64-1.2,1.92-2.44,3.91-3.52,5.93.48,3.91.81,7.49,1,10.52a.9.9,0,0,1-.85.95l-.23,0a.9.9,0,0,1-.72-.84,192.43,192.43,0,0,0-2.88-23.07A41.47,41.47,0,0,0,62,279.33c-6.13-2.65-11.92-5.16-12.61-15.34a.9.9,0,0,1,.33-.76.87.87,0,0,1,.81-.16c7.48,2.12,15,11.1,18.79,16.12-.85-4.4-1.82-8.85-2.88-13.18a57.83,57.83,0,0,0-5.32-3.18c-5.46-3-10.61-5.79-11.39-14.8a.94.94,0,0,1,.32-.77.91.91,0,0,1,.81-.18c5.41,1.44,10.7,8,14,12.76-1.23-4.42-2.54-8.57-3.92-12.22-1.37-.36-2.71-.59-4-.8-.83-.13-1.65-.26-2.45-.43-3.42-.71-6.52-2.06-8.68-6.82A.91.91,0,0,1,45.85,238.74Z"/><path class="cls-1" d="M137.14,230.69a1.41,1.41,0,0,0-1.11-.64c-6.48-.32-14.67,5.34-19.54,9.27a73,73,0,0,1,3.79-8.22,1.25,1.25,0,0,0,.09-.25s0-.08.06-.13c.08-.38,1.87-9.28-5.07-14.66a1.39,1.39,0,0,0-2.15.59,12.4,12.4,0,0,0,4.09,14.18A112.88,112.88,0,0,0,110,249.55c-1-6.15-3.16-14.94-7.77-18.92a1.42,1.42,0,0,0-1.24-.3h0a1.39,1.39,0,0,0-1,.85c-3.51,9.17.22,14.29,4.18,19.7a55.4,55.4,0,0,1,3.77,5.68c-1.48,5.45-2.86,11.22-4.11,17.15-1.36-8.75-4.42-21.5-11-27.17a1.36,1.36,0,0,0-1.25-.3,1.39,1.39,0,0,0-1,.85c-4.93,12.85.34,20,5.91,27.68A82,82,0,0,1,102,283c-1.54,8.3-2.84,16.66-3.83,24.56-1.86-11.95-5.86-29.29-14-36.07a1.31,1.31,0,0,0-1.25-.28,1.41,1.41,0,0,0-.94.87c-6,16.59,1.68,28.06,9.14,39.15,1.94,2.89,3.94,5.88,5.7,8.95-.55,6-.88,11.55-1,16.21a1.39,1.39,0,0,0,1.37,1.41,1.34,1.34,0,0,0,.35,0,1.38,1.38,0,0,0,1.06-1.32,300.34,300.34,0,0,1,3.3-35.6,64.11,64.11,0,0,1,12.31-7c9.29-4.37,18.07-8.5,18.64-24.18a1.36,1.36,0,0,0-.54-1.15,1.38,1.38,0,0,0-1.26-.22c-11.39,3.63-22.57,17.8-28.1,25.7,1.1-6.8,2.37-13.7,3.8-20.4a86.9,86.9,0,0,1,8-5.14c8.24-4.85,16-9.43,16.78-23.3A1.4,1.4,0,0,0,131,244a1.36,1.36,0,0,0-1.25-.23c-8.24,2.46-16.06,12.77-20.83,20.27,1.67-6.84,3.49-13.28,5.43-19,2.08-.62,4.13-1,6.12-1.42,1.26-.25,2.52-.49,3.74-.79,5.22-1.26,9.93-3.47,13-10.89A1.38,1.38,0,0,0,137.14,230.69Z"/><path class="cls-8" d="M122.66,291.21H60.36a4.84,4.84,0,0,0-5,4.6c-1.27,28.7,3.43,57.95,12.18,86.59h47.71c8.75-28.64,13.45-57.89,12.18-86.59A4.79,4.79,0,0,0,122.66,291.21Z"/><rect class="cls-6" x="209.1" y="243.56" width="7.79" height="138.83" transform="translate(425.99 625.96) rotate(180)"/><rect class="cls-2" x="206.64" y="243.56" width="5.41" height="138.83" transform="translate(418.69 625.96) rotate(180)"/><rect class="cls-2" x="206.64" y="243.56" width="172.26" height="9.57"/><rect class="cls-6" x="376.24" y="253.14" width="7.79" height="129.26" transform="translate(760.26 635.53) rotate(180)"/><rect class="cls-2" x="373.78" y="253.14" width="5.41" height="129.26" transform="translate(752.97 635.53) rotate(180)"/><rect class="cls-6" x="431.69" y="253.14" width="7.79" height="129.26" transform="translate(871.18 635.53) rotate(180)"/><rect class="cls-2" x="429.23" y="253.14" width="5.41" height="129.26" transform="translate(863.88 635.53) rotate(180)"/><rect class="cls-6" x="258.4" y="253.14" width="7.79" height="129.26" transform="translate(524.6 635.53) rotate(180)"/><rect class="cls-2" x="255.94" y="253.14" width="5.41" height="129.26" transform="translate(517.3 635.53) rotate(180)"/><rect class="cls-6" x="378.9" y="243.56" width="60.58" height="9.57" transform="translate(818.39 496.7) rotate(180)"/></g><g id="Shadow"><ellipse id="_Path_" data-name="&lt;Path&gt;" class="cls-8" cx="250" cy="416.24" rx="193.89" ry="11.32"/></g><g id="Photocopy"><polygon class="cls-9" points="212.24 256.86 179.7 256.86 207.51 291.21 240.04 291.21 212.24 256.86"/><polygon class="cls-10" points="183.73 256.86 212.24 256.86 240.04 291.21 211.54 291.21 183.73 256.86"/><circle class="cls-11" cx="357.44" cy="409.55" r="4.78"/><circle class="cls-11" cx="332.18" cy="409.55" r="4.78"/><circle class="cls-11" cx="244.82" cy="409.55" r="4.78"/><circle class="cls-11" cx="219.56" cy="409.55" r="4.78"/><rect class="cls-9" x="211.54" y="208.2" width="153.91" height="201.35"/><rect class="cls-10" x="211.54" y="340.84" width="153.91" height="1.04"/><rect class="cls-10" x="211.54" y="313.2" width="112.62" height="1.04"/><rect class="cls-10" x="211.54" y="368.49" width="112.62" height="1.04"/><path class="cls-9" d="M211.54,208.2H353.22V190.82H229.34a5.56,5.56,0,0,0-5.56,5.56v5.3Z"/><polygon class="cls-10" points="213.49 207.16 211.54 208.2 324.16 208.2 324.16 207.16 213.49 207.16"/><polygon class="cls-10" points="268.89 190.81 268.89 192.99 256.66 199.51 353.22 199.51 353.22 190.81 268.89 190.81"/><path class="cls-11" d="M223.08,241.15v41.16a4.72,4.72,0,0,0,4.73,4.72H316a4.72,4.72,0,0,0,4.72-4.72v-6.68h27.74a4.72,4.72,0,0,0,4.73-4.72V242.54l-29.06-6.12H227.81A4.73,4.73,0,0,0,223.08,241.15Z"/><path class="cls-10" d="M324.16,236.42H234.69A19.61,19.61,0,0,0,254.3,256h69.86l5.95,4a14.82,14.82,0,0,0,23.11-12.28v-5.22Z"/><rect class="cls-10" x="324.16" y="208.2" width="41.29" height="201.35" transform="translate(689.62 617.75) rotate(180)"/><path class="cls-12" d="M276.55,219.88H237.13c-1,0-1.57-.62-1.23-1.38L245,197.9a2.84,2.84,0,0,1,2.45-1.38h39.42c1,0,1.57.62,1.23,1.38L279,218.5A2.81,2.81,0,0,1,276.55,219.88Z"/><path class="cls-11" d="M275.3,219.88H235.88c-1,0-1.57-.62-1.23-1.38l9.12-20.6a2.84,2.84,0,0,1,2.45-1.38h39.42c1,0,1.57.62,1.23,1.38l-9.12,20.6A2.83,2.83,0,0,1,275.3,219.88Z"/><path class="cls-13" d="M273.72,217.64H239.45c-.68,0-1-.41-.82-.92l7.55-17a1.86,1.86,0,0,1,1.62-.92h34.28c.67,0,1,.41.81.92l-7.55,17A1.86,1.86,0,0,1,273.72,217.64Z"/><path class="cls-9" d="M253.24,207.19h-6.5c-.41,0-.64-.26-.5-.57l2.16-4.87a1.15,1.15,0,0,1,1-.57h6.5c.42,0,.65.25.51.57l-2.16,4.87A1.17,1.17,0,0,1,253.24,207.19Z"/><path class="cls-9" d="M264.45,207.19H258c-.42,0-.64-.26-.51-.57l2.16-4.87a1.15,1.15,0,0,1,1-.57h6.5c.42,0,.64.25.5.57l-2.15,4.87A1.17,1.17,0,0,1,264.45,207.19Z"/><path class="cls-5" d="M275.65,207.19h-6.5c-.41,0-.64-.26-.5-.57l2.16-4.87a1.15,1.15,0,0,1,1-.57h6.5c.42,0,.65.25.51.57l-2.16,4.87A1.17,1.17,0,0,1,275.65,207.19Z"/><path class="cls-5" d="M249.66,215.27h-6.5c-.41,0-.64-.25-.5-.56l2.16-4.88a1.17,1.17,0,0,1,1-.57h6.5c.42,0,.65.26.51.57l-2.16,4.88A1.17,1.17,0,0,1,249.66,215.27Z"/><path class="cls-9" d="M260.87,215.27h-6.5c-.42,0-.64-.25-.51-.56l2.16-4.88a1.17,1.17,0,0,1,1-.57h6.5c.42,0,.64.26.5.57l-2.15,4.88A1.17,1.17,0,0,1,260.87,215.27Z"/><path class="cls-9" d="M272.07,215.27h-6.5c-.41,0-.64-.25-.5-.56l2.16-4.88a1.17,1.17,0,0,1,1-.57h6.5c.42,0,.65.26.51.57l-2.16,4.88A1.17,1.17,0,0,1,272.07,215.27Z"/><path class="cls-10" d="M324.16,208.2v-1.76a3.57,3.57,0,0,1,3.56-3.56h8.12v-3.37l4.52-4.52h10.81l2.05-4.17V208.2Z"/><path class="cls-10" d="M280.64,325.89H255.06a1.4,1.4,0,0,1-1.39-1.39h0a1.39,1.39,0,0,1,1.39-1.39h25.58A1.39,1.39,0,0,1,282,324.5h0A1.39,1.39,0,0,1,280.64,325.89Z"/><path class="cls-10" d="M280.64,353.53H255.06a1.39,1.39,0,0,1-1.39-1.39h0a1.4,1.4,0,0,1,1.39-1.39h25.58a1.39,1.39,0,0,1,1.39,1.39h0A1.39,1.39,0,0,1,280.64,353.53Z"/><rect class="cls-10" x="266.81" y="393.36" width="1.04" height="16.19"/><polygon class="cls-10" points="267.85 381.42 211.54 381.42 211.54 382.46 266.81 382.46 266.81 389.55 267.85 389.55 267.85 381.42"/><path class="cls-10" d="M285.35,389.55h-35a1.91,1.91,0,0,0,0,3.81h35a1.91,1.91,0,0,0,0-3.81Z"/></g><g id="Character"><path class="cls-14" d="M166.63,167.53l-.15.59-.17.74c-.11.51-.23,1-.32,1.55-.21,1-.36,2.12-.49,3.2a59.75,59.75,0,0,0-.51,6.59c-.05,2.21,0,4.45.12,6.68.08,1.11.13,2.24.26,3.35l.14,1.44c0,.05,0,0-.09,0s.19.31.9.53a10.56,10.56,0,0,0,2.6.46,36.32,36.32,0,0,0,6.45-.2A124.63,124.63,0,0,0,189,190.05l1.48,4.23a76.63,76.63,0,0,1-14,4.73,39.94,39.94,0,0,1-7.71,1.06,18.62,18.62,0,0,1-4.44-.42,10.82,10.82,0,0,1-2.55-.92,8.2,8.2,0,0,1-2.61-2.06,8.09,8.09,0,0,1-1.6-3.21c-.15-.67-.16-.81-.22-1.16l-.17-.92c-.23-1.23-.41-2.47-.57-3.71a65.07,65.07,0,0,1-.51-7.53,66.94,66.94,0,0,1,.35-7.61c.17-1.28.35-2.55.6-3.83.12-.64.26-1.29.41-1.94l.27-1c.1-.36.17-.63.34-1.12Z"/><path class="cls-9" d="M201.53,213.33l-26.42-3.56q8.87-20.09,19-40c8.55,1.73,17.87,2.71,26.41,4.44C214,187,207.19,200.49,201.53,213.33Z"/><path class="cls-15" d="M201.53,213.33l-26.42-3.56q8.87-20.09,19-40c8.55,1.73,17.87,2.71,26.41,4.44C214,187,207.19,200.49,201.53,213.33Z"/><path class="cls-9" d="M225.94,175.55c-6.56,12.9-12.94,25.93-18.71,38.95-2.07-.49-4.64-1-5.7-1.18,5.67-12.83,12.5-26.37,19-39.07C221.93,174.62,224.21,175.08,225.94,175.55Z"/><path class="cls-16" d="M225.94,175.55c-6.56,12.9-12.94,25.93-18.71,38.95-2.07-.49-4.64-1-5.7-1.18,5.67-12.83,12.5-26.37,19-39.07C221.93,174.62,224.21,175.08,225.94,175.55Z"/><path class="cls-11" d="M172.85,407.77a10.52,10.52,0,0,1-2.33-.31.21.21,0,0,1-.16-.17.2.2,0,0,1,.09-.21c.3-.2,3-1.93,4-1.47a.72.72,0,0,1,.42.59,1.17,1.17,0,0,1-.35,1.11A2.47,2.47,0,0,1,172.85,407.77Zm-1.74-.61c1.54.31,2.69.25,3.14-.16a.79.79,0,0,0,.22-.74.32.32,0,0,0-.18-.27C173.75,405.75,172.2,406.5,171.11,407.16Z"/><path class="cls-11" d="M170.57,407.46a.2.2,0,0,1-.11,0,.2.2,0,0,1-.1-.18c0-.1,0-2.65,1-3.5a1.06,1.06,0,0,1,.88-.28.73.73,0,0,1,.71.59c.2,1-1.41,2.9-2.25,3.38Zm1.5-3.58a.69.69,0,0,0-.46.18c-.58.51-.77,1.94-.82,2.79.84-.67,1.84-2.11,1.72-2.71,0-.1-.08-.22-.35-.25Z"/><path class="cls-11" d="M228.15,404.4a.23.23,0,0,1-.18-.12.22.22,0,0,1,0-.24c.3-.31,3-3,4.21-2.94h.08a.68.68,0,0,1,.52.41,1.19,1.19,0,0,1,0,1.09c-.63,1.12-3.15,1.6-4.59,1.78Zm4-2.89c-.69,0-2.3,1.29-3.43,2.38,2-.32,3.31-.86,3.67-1.49a.74.74,0,0,0,0-.71.26.26,0,0,0-.2-.17Z"/><path class="cls-11" d="M228.15,404.4h-.05a.21.21,0,0,1-.14-.15c0-.1-.59-2.42.17-3.65a1.47,1.47,0,0,1,1-.71c.57-.13.82.09.93.31.48.89-.89,3.36-1.74,4.15A.22.22,0,0,1,228.15,404.4Zm1.3-4.14a.79.79,0,0,0-.25,0,1.16,1.16,0,0,0-.72.53,4.77,4.77,0,0,0-.19,2.94c.81-1,1.67-2.83,1.38-3.37C229.66,400.35,229.61,400.27,229.45,400.26Z"/><path class="cls-14" d="M171.2,132.56c1,5.24,3.34,16.68-.33,20.18,0,0,1.43,5.32,11.17,5.32,10.72,0,5.12-5.32,5.12-5.32-5.84-1.4-5.69-5.74-4.67-9.81Z"/><path class="cls-11" d="M167.44,154.22a18.75,18.75,0,0,1-1.33-3.66c-.39-1.78,14.22-2.06,19-1.23s6.39,5.89,6.39,5.89Z"/><path class="cls-17" d="M194.63,131.34a19.27,19.27,0,0,0,1.57,5,3.07,3.07,0,0,1-2.59-.05Z"/><path class="cls-9" d="M196.59,123.56v.5a1.23,1.23,0,0,1,.95.49,5.78,5.78,0,0,1,.69,4.35c-.47,3-2.12,5-3.36,5a1.2,1.2,0,0,1-1-.49,5.78,5.78,0,0,1-.69-4.35c.47-3,2.12-5,3.36-5v-.5m0,0c-1.65,0-3.38,2.42-3.86,5.4s.48,5.42,2.14,5.42h0c1.65,0,3.38-2.41,3.86-5.4s-.48-5.41-2.14-5.42Z"/><path class="cls-11" d="M193.08,126a.34.34,0,0,1-.16-.1.41.41,0,0,1,0-.59,4.13,4.13,0,0,1,3.62-1.22.41.41,0,0,1,.32.5.43.43,0,0,1-.5.32h0a3.29,3.29,0,0,0-2.85,1A.41.41,0,0,1,193.08,126Z"/><path class="cls-11" d="M194.26,130c-.15.7.1,1.34.56,1.44s.94-.4,1.09-1.1-.11-1.34-.57-1.43S194.4,129.31,194.26,130Z"/><path class="cls-11" d="M195.13,128.91l1.78-.13S195.78,129.91,195.13,128.91Z"/><polygon class="cls-14" points="218.5 407.19 227.1 405.2 223.07 385.13 214.46 387.12 218.5 407.19"/><polygon class="cls-14" points="160.29 407.25 169.13 407.25 168.43 386.79 159.6 386.79 160.29 407.25"/><path class="cls-11" d="M169.83,406.23H159.9a.7.7,0,0,0-.71.6l-1.13,7.86a1.43,1.43,0,0,0,1.42,1.57c3.46-.06,5.13-.26,9.49-.26,2.69,0,6.61.28,10.32.28s3.91-3.67,2.36-4c-6.92-1.49-8-3.55-10.35-5.51A2.32,2.32,0,0,0,169.83,406.23Z"/><path class="cls-11" d="M227.29,403.4l-9.41,3.17a.71.71,0,0,0-.48.8l1.44,7.8a1.42,1.42,0,0,0,1.84,1c3.26-1.16,4.78-1.89,8.92-3.28,2.54-.86,7.9-2.37,11.41-3.55s2.53-4.72,1-4.54c-7,.8-10.27-.28-13.11-1.39A2.24,2.24,0,0,0,227.29,403.4Z"/><polygon class="cls-18" points="223.07 385.13 225.23 395.89 216.54 397.47 214.45 387.13 223.07 385.13"/><polygon class="cls-18" points="159.59 386.8 168.44 386.8 168.79 397.34 159.95 397.34 159.59 386.8"/><path class="cls-9" d="M158.83,155.39c-3.32,1.77-3.52,15.54-3.52,15.54l13,7.81s4.92-14.27,2-18.18C167.25,156.48,162.74,153.3,158.83,155.39Z"/><path class="cls-9" d="M202.1,155s4.21,1.48-4.22,53.33H162c.56-13.55.61-22.28-5-47.43a6,6,0,0,1,5-7.28c2.58-.37,5.69-.73,8.84-.88a113.42,113.42,0,0,1,16.29,0C194.16,153.38,202.1,155,202.1,155Z"/><path class="cls-19" d="M202.42,174.9c-.23,2.52-.54,5.36-.94,8.57-2.94-2.65-5.34-10.18-4.46-14.57A26,26,0,0,1,202.42,174.9Z"/><path class="cls-14" d="M207,163.67c1.81,4.26,3.76,8.61,5.74,12.83,1,2.11,2,4.2,3.13,6.24s2.2,4,3.38,5.92c.58,1,1.2,1.81,1.82,2.68a8.36,8.36,0,0,0,1.7,1.72,19.59,19.59,0,0,0,5.31,2.71,59.91,59.91,0,0,0,13.24,2.68l.21,4.47a45.54,45.54,0,0,1-15.3-.36,24.74,24.74,0,0,1-7.85-3,15.36,15.36,0,0,1-3.63-3.07c-.85-1-1.7-2.08-2.44-3.12a100,100,0,0,1-7.62-12.92c-2.24-4.39-4.24-8.79-6.07-13.42Z"/><path class="cls-9" d="M202.1,155c4.39,1.07,9.8,13.13,9.8,13.13l-9.12,13.39s-12.14-15.28-10.69-20C193.59,156.71,196.77,153.7,202.1,155Z"/><path class="cls-14" d="M239.62,203l5.73.27L243,197a15.59,15.59,0,0,0-5.86,2.75Z"/><polygon class="cls-14" points="249.6 203.06 247.64 198.3 242.96 196.97 245.35 203.3 249.6 203.06"/><path class="cls-14" d="M171.28,122.76c-1.24,8.68-1.95,12.33,1.46,17.62,5.15,8,16.08,7.6,19.9-.53,3.43-7.32,4.89-20.29-2.79-25.44A12,12,0,0,0,171.28,122.76Z"/><path class="cls-11" d="M167.56,121.06c-2.8,5.47-.21,14.13,5.17,21.34a17.46,17.46,0,0,1,5.7-.21,10.38,10.38,0,0,0,8.94-3.55c2.27-2.63,4-6.13,1.52-9.39,3-4.42,4.9-4.81,4.72-7.36C185.39,117.78,169.67,116.92,167.56,121.06Z"/><path class="cls-20" d="M167.56,121.06c-2.8,5.47-.21,14.13,5.17,21.34a17.46,17.46,0,0,1,5.7-.21,10.38,10.38,0,0,0,8.94-3.55c2.27-2.63,4-6.13,1.52-9.39,3-4.42,4.9-4.81,4.72-7.36C185.39,117.78,169.67,116.92,167.56,121.06Z"/><path class="cls-11" d="M190.14,121.65s3.73,2.73,4.09,6.7a3.76,3.76,0,0,0-3.53-.35Z"/><path class="cls-11" d="M189.28,123.55s3.55,3,3.65,7a3.78,3.78,0,0,0-3.5-.58Z"/><path class="cls-11" d="M192.93,127c-1.91.17-8.28,1-12.65,1a13.86,13.86,0,0,1-.42-3.82,21.94,21.94,0,0,0-.7,3.82c-5.07,0-10.47-.36-13.63-1.34a13.84,13.84,0,0,1-.45-4.51,6.49,6.49,0,0,0-.84,4.13c-.26-.08-1.17-.23-1.41-.31-1-8.39,2.33-14.67,8.67-13.67,9.16-6.39,21.83-1.5,24.52,3.23S195.73,126,192.93,127Z"/><path class="cls-14" d="M191.79,129.07A6.52,6.52,0,0,1,192,134c-.76,2.11-2.91,1.84-4.17.16-1.14-1.52-2.12-4.45-.64-6S190.92,127.19,191.79,129.07Z"/><path class="cls-11" d="M188.4,208.33S183.27,269,178,303.16c-4.3,27.61-7.69,92.14-7.69,92.14h-12s-4.29-62.6-2.11-89.91c5.52-69.09-6.79-74.72,5.88-97.06Z"/><path class="cls-19" d="M178.38,228.58A47.31,47.31,0,0,1,185,244.21c-1,10.23-2.22,21.55-3.53,32.44C178.15,267.58,174.48,249.2,178.38,228.58Z"/><path class="cls-11" d="M197.88,208.33s10,68,13.46,94.77c3.63,27.8,14.27,90.12,14.27,90.12L213.8,395s-20.13-59.2-23.88-86.49c-4.08-29.75-19.47-100.21-19.47-100.21Z"/><polygon class="cls-11" points="227.45 392.7 212.53 396.29 210.43 390.7 226.4 386.85 227.45 392.7"/><polygon class="cls-11" points="171.91 395.54 156.57 395.54 155.76 390.16 172 389.61 171.91 395.54"/><path class="cls-5" d="M161.45,206.23l-1.62,3.21c-.12.25.17.5.59.5h37.64c.32,0,.59-.16.61-.36l.32-3.21c0-.22-.26-.41-.61-.41H162A.66.66,0,0,0,161.45,206.23Z"/><path class="cls-11" d="M166.33,210.29h-1c-.19,0-.34-.1-.33-.22l.46-4.18c0-.12.18-.22.38-.22h1c.19,0,.34.1.33.22l-.46,4.18C166.7,210.19,166.53,210.29,166.33,210.29Z"/><path class="cls-11" d="M189.93,210.29h-1c-.19,0-.34-.1-.33-.22l.46-4.18c0-.12.18-.22.38-.22h1c.19,0,.34.1.33.22l-.46,4.18C190.29,210.19,190.12,210.29,189.93,210.29Z"/></g></svg>